<svg width="200" height="200" viewBox="0 0 200 200" fill="none" xmlns="http://www.w3.org/2000/svg">
<path d="M95.8333 102.083C95.8333 100.426 96.4917 98.8359 97.6638 97.6638C98.8359 96.4917 100.426 95.8333 102.083 95.8333C103.741 95.8333 105.331 95.1748 106.503 94.0027C107.675 92.8306 108.333 91.2409 108.333 89.5833C108.333 87.9256 107.675 86.3359 106.503 85.1638C105.331 83.9917 103.741 83.3333 102.083 83.3333C97.1104 83.3333 92.3413 85.3087 88.825 88.825C85.3087 92.3413 83.3333 97.1104 83.3333 102.083C83.3333 103.741 83.9917 105.331 85.1638 106.503C86.3359 107.675 87.9256 108.333 89.5833 108.333C91.2409 108.333 92.8306 107.675 94.0027 106.503C95.1748 105.331 95.8333 103.741 95.8333 102.083Z" fill="white"/>
<path d="M58.3333 104.167C58.3333 92.0108 63.1621 80.3529 71.7575 71.7575C80.3529 63.1621 92.0108 58.3333 104.167 58.3333C116.322 58.3333 127.98 63.1621 136.576 71.7575C145.171 80.3529 150 92.0108 150 104.167C150 116.322 145.171 127.98 136.576 136.576C127.98 145.171 116.322 150 104.167 150C92.0108 150 80.3529 145.171 71.7575 136.576C63.1621 127.98 58.3333 116.322 58.3333 104.167V104.167ZM104.167 70.8333C95.326 70.8333 86.8476 74.3451 80.5964 80.5964C74.3451 86.8476 70.8333 95.326 70.8333 104.167C70.8333 113.007 74.3451 121.486 80.5964 127.737C86.8476 133.988 95.326 137.5 104.167 137.5C113.007 137.5 121.486 133.988 127.737 127.737C133.988 121.486 137.5 113.007 137.5 104.167C137.5 95.326 133.988 86.8476 127.737 80.5964C121.486 74.3451 113.007 70.8333 104.167 70.8333V70.8333Z" fill="white"/>
<path d="M51.7916 54.1166C64.0666 31.875 86.525 16.6666 112.5 16.6666C152.167 16.6666 183.333 51.8416 183.333 93.9583C183.333 98.675 182.942 103.3 182.2 107.792C181.725 110.658 181.825 113.708 182.4 116.817C184.308 127.076 183.325 137.663 179.561 147.395C175.796 157.128 169.399 165.621 161.084 171.925C152.769 178.23 142.864 182.097 132.477 183.095C122.09 184.093 111.63 182.181 102.267 177.575C95.6179 174.389 88.1625 173.282 80.875 174.4C78.2411 174.8 75.5807 175.001 72.9166 175C41.3916 175 16.6666 147.467 16.6666 114.583C16.6666 93.1583 27.0666 74.1666 43 63.4166C46.7166 60.8916 49.7833 57.7416 51.7916 54.1166ZM112.5 29.1666C91.6583 29.1666 73.1083 41.3666 62.7333 60.1583C59.6083 65.8083 55.05 70.35 49.9833 73.7666C37.6083 82.1416 29.1666 97.2 29.1666 114.583C29.1666 141.525 49.2166 162.5 72.9166 162.5C74.9833 162.5 77.0083 162.342 79 162.042C88.8102 160.541 98.845 162.045 107.783 166.358C115.067 169.94 123.203 171.425 131.283 170.648C139.362 169.87 147.066 166.86 153.533 161.954C159.999 157.048 164.973 150.441 167.899 142.869C170.825 135.298 171.587 127.063 170.1 119.083C169.25 114.686 169.171 110.174 169.867 105.75C170.5 101.933 170.833 97.9916 170.833 93.9583C170.833 57.6 144.167 29.1666 112.5 29.1666V29.1666Z" fill="white"/>
</svg>
